<svg width="22" height="22" viewBox="0 0 22 22" fill="none" xmlns="http://www.w3.org/2000/svg">
<path d="M0.93934 18.9393C0.353553 19.5251 0.353553 20.4749 0.93934 21.0607C1.52513 21.6464 2.47487 21.6464 3.06066 21.0607L0.93934 18.9393ZM21.5 2C21.5 1.17157 20.8284 0.5 20 0.499999L6.5 0.5C5.67157 0.5 5 1.17157 5 2C5 2.82843 5.67157 3.5 6.5 3.5L18.5 3.5L18.5 15.5C18.5 16.3284 19.1716 17 20 17C20.8284 17 21.5 16.3284 21.5 15.5L21.5 2ZM3.06066 21.0607L21.0607 3.06066L18.9393 0.93934L0.93934 18.9393L3.06066 21.0607Z" fill="#3444FB"/>
</svg>
