<svg width="38" height="37" viewBox="0 0 38 37" fill="none" xmlns="http://www.w3.org/2000/svg">
<rect x="0.973145" y="0.176758" width="36.4413" height="36.4446" rx="18.2207" fill="black"/>
<path d="M24.0802 21.4315C23.4669 20.826 22.7013 20.826 22.0919 21.4315C21.627 21.8925 21.1621 22.3535 20.7051 22.8223C20.5801 22.9512 20.4746 22.9786 20.3222 22.8926C20.0214 22.7285 19.7011 22.5957 19.412 22.416C18.0643 21.5682 16.9354 20.4783 15.9353 19.2516C15.4392 18.6422 14.9978 17.9898 14.6891 17.2553C14.6266 17.1069 14.6384 17.0092 14.7595 16.8881C15.2243 16.4388 15.6775 15.9778 16.1345 15.5168C16.7713 14.8762 16.7713 14.1261 16.1306 13.4815C15.7673 13.1143 15.404 12.7548 15.0407 12.3876C14.6657 12.0126 14.2946 11.6336 13.9157 11.2625C13.3024 10.6648 12.5367 10.6648 11.9273 11.2664C11.4585 11.7274 11.0093 12.2001 10.5327 12.6533C10.0913 13.0713 9.86859 13.5831 9.82171 14.1808C9.74749 15.1535 9.98578 16.0716 10.3217 16.9662C11.0093 18.818 12.0562 20.4627 13.3258 21.9706C15.0407 24.0099 17.0877 25.6234 19.4824 26.7875C20.5605 27.311 21.6778 27.7134 22.8927 27.7798C23.7287 27.8267 24.4553 27.6157 25.0373 26.9633C25.4358 26.518 25.885 26.1117 26.3069 25.6859C26.9319 25.053 26.9359 24.2873 26.3147 23.6622C25.5725 22.916 24.8264 22.1738 24.0802 21.4315Z" fill="#2AD500"/>
<path d="M23.3352 18.3149L24.7766 18.0689C24.55 16.7446 23.925 15.5454 22.9759 14.5923C21.972 13.5884 20.7026 12.9556 19.3042 12.7603L19.1011 14.2095C20.183 14.3618 21.1674 14.8501 21.9447 15.6274C22.679 16.3618 23.1595 17.2915 23.3352 18.3149Z" fill="#2AD500"/>
<path d="M25.5876 12.0505C23.9236 10.3865 21.8182 9.33569 19.4941 9.01147L19.291 10.4607C21.2987 10.7419 23.1189 11.6521 24.5564 13.0857C25.9196 14.449 26.8141 16.1716 27.1383 18.0662L28.5796 17.8201C28.2007 15.6248 27.1656 13.6326 25.5876 12.0505Z" fill="#2AD500"/>
</svg>
