<svg width="24" height="25" viewBox="0 0 24 25" fill="none" xmlns="http://www.w3.org/2000/svg">
<path d="M22 3.70312H2C1.59 3.70312 1.25 3.36312 1.25 2.95312C1.25 2.54312 1.59 2.20312 2 2.20312H22C22.41 2.20312 22.75 2.54312 22.75 2.95312C22.75 3.36312 22.41 3.70312 22 3.70312Z" fill="#3444FB"/>
<path d="M3.66992 2.95312V14.9231C3.66992 15.9031 4.12992 16.8331 4.91992 17.4231L10.1299 21.3231C11.2399 22.1531 12.7699 22.1531 13.8799 21.3231L19.0899 17.4231C19.8799 16.8331 20.3399 15.9031 20.3399 14.9231V2.95312H3.66992ZM15.9999 14.2031H7.99992C7.58992 14.2031 7.24992 13.8631 7.24992 13.4531C7.24992 13.0431 7.58992 12.7031 7.99992 12.7031H15.9999C16.4099 12.7031 16.7499 13.0431 16.7499 13.4531C16.7499 13.8631 16.4099 14.2031 15.9999 14.2031ZM15.9999 9.20313H7.99992C7.58992 9.20313 7.24992 8.86313 7.24992 8.45313C7.24992 8.04313 7.58992 7.70313 7.99992 7.70313H15.9999C16.4099 7.70313 16.7499 8.04313 16.7499 8.45313C16.7499 8.86313 16.4099 9.20313 15.9999 9.20313Z" fill="#3444FB"/>
</svg>
