<svg width="24" height="25" viewBox="0 0 24 25" fill="none" xmlns="http://www.w3.org/2000/svg">
<path d="M16.7502 4.01312V2.45312C16.7502 2.04313 16.4102 1.70312 16.0002 1.70312C15.5902 1.70312 15.2502 2.04313 15.2502 2.45312V3.95312H8.75023V2.45312C8.75023 2.04313 8.41023 1.70312 8.00023 1.70312C7.59023 1.70312 7.25023 2.04313 7.25023 2.45312V4.01312C4.55023 4.26312 3.24023 5.87312 3.04023 8.26312C3.02023 8.55312 3.26023 8.79313 3.54023 8.79313H20.4602C20.7502 8.79313 20.9902 8.54312 20.9602 8.26312C20.7602 5.87312 19.4502 4.26312 16.7502 4.01312Z" fill="#3444FB"/>
<path d="M20 10.2932H4C3.45 10.2932 3 10.7432 3 11.2932V17.4532C3 20.4532 4.5 22.4532 8 22.4532H16C19.5 22.4532 21 20.4532 21 17.4532V11.2932C21 10.7432 20.55 10.2932 20 10.2932ZM9.21 18.6632C9.16 18.7032 9.11 18.7532 9.06 18.7832C9 18.8232 8.94 18.8532 8.88 18.8732C8.82 18.9032 8.76 18.9232 8.7 18.9332C8.63 18.9432 8.57 18.9532 8.5 18.9532C8.37 18.9532 8.24 18.9232 8.12 18.8732C7.99 18.8232 7.89 18.7532 7.79 18.6632C7.61 18.4732 7.5 18.2132 7.5 17.9532C7.5 17.6932 7.61 17.4332 7.79 17.2432C7.89 17.1532 7.99 17.0832 8.12 17.0332C8.3 16.9532 8.5 16.9332 8.7 16.9732C8.76 16.9832 8.82 17.0032 8.88 17.0332C8.94 17.0532 9 17.0832 9.06 17.1232C9.11 17.1632 9.16 17.2032 9.21 17.2432C9.39 17.4332 9.5 17.6932 9.5 17.9532C9.5 18.2132 9.39 18.4732 9.21 18.6632ZM9.21 15.1632C9.02 15.3432 8.76 15.4532 8.5 15.4532C8.24 15.4532 7.98 15.3432 7.79 15.1632C7.61 14.9732 7.5 14.7132 7.5 14.4532C7.5 14.1932 7.61 13.9332 7.79 13.7432C8.07 13.4632 8.51 13.3732 8.88 13.5332C9.01 13.5832 9.12 13.6532 9.21 13.7432C9.39 13.9332 9.5 14.1932 9.5 14.4532C9.5 14.7132 9.39 14.9732 9.21 15.1632ZM12.71 18.6632C12.52 18.8432 12.26 18.9532 12 18.9532C11.74 18.9532 11.48 18.8432 11.29 18.6632C11.11 18.4732 11 18.2132 11 17.9532C11 17.6932 11.11 17.4332 11.29 17.2432C11.66 16.8732 12.34 16.8732 12.71 17.2432C12.89 17.4332 13 17.6932 13 17.9532C13 18.2132 12.89 18.4732 12.71 18.6632ZM12.71 15.1632C12.66 15.2032 12.61 15.2432 12.56 15.2832C12.5 15.3232 12.44 15.3532 12.38 15.3732C12.32 15.4032 12.26 15.4232 12.2 15.4332C12.13 15.4432 12.07 15.4532 12 15.4532C11.74 15.4532 11.48 15.3432 11.29 15.1632C11.11 14.9732 11 14.7132 11 14.4532C11 14.1932 11.11 13.9332 11.29 13.7432C11.38 13.6532 11.49 13.5832 11.62 13.5332C11.99 13.3732 12.43 13.4632 12.71 13.7432C12.89 13.9332 13 14.1932 13 14.4532C13 14.7132 12.89 14.9732 12.71 15.1632ZM16.21 18.6632C16.02 18.8432 15.76 18.9532 15.5 18.9532C15.24 18.9532 14.98 18.8432 14.79 18.6632C14.61 18.4732 14.5 18.2132 14.5 17.9532C14.5 17.6932 14.61 17.4332 14.79 17.2432C15.16 16.8732 15.84 16.8732 16.21 17.2432C16.39 17.4332 16.5 17.6932 16.5 17.9532C16.5 18.2132 16.39 18.4732 16.21 18.6632ZM16.21 15.1632C16.16 15.2032 16.11 15.2432 16.06 15.2832C16 15.3232 15.94 15.3532 15.88 15.3732C15.82 15.4032 15.76 15.4232 15.7 15.4332C15.63 15.4432 15.56 15.4532 15.5 15.4532C15.24 15.4532 14.98 15.3432 14.79 15.1632C14.61 14.9732 14.5 14.7132 14.5 14.4532C14.5 14.1932 14.61 13.9332 14.79 13.7432C14.89 13.6532 14.99 13.5832 15.12 13.5332C15.3 13.4532 15.5 13.4332 15.7 13.4732C15.76 13.4832 15.82 13.5032 15.88 13.5332C15.94 13.5532 16 13.5832 16.06 13.6232C16.11 13.6632 16.16 13.7032 16.21 13.7432C16.39 13.9332 16.5 14.1932 16.5 14.4532C16.5 14.7132 16.39 14.9732 16.21 15.1632Z" fill="#3444FB"/>
</svg>
