<svg width="24" height="25" viewBox="0 0 24 25" fill="none" xmlns="http://www.w3.org/2000/svg">
<path d="M17.53 8.17845C17.46 8.16845 17.39 8.16845 17.32 8.17845C15.77 8.12845 14.54 6.85845 14.54 5.29845C14.54 3.70845 15.83 2.40845 17.43 2.40845C19.02 2.40845 20.32 3.69845 20.32 5.29845C20.31 6.85845 19.08 8.12845 17.53 8.17845Z" fill="#3444FB"/>
<path d="M20.7901 15.1084C19.6701 15.8584 18.1001 16.1384 16.6501 15.9484C17.0301 15.1284 17.2301 14.2184 17.2401 13.2584C17.2401 12.2584 17.0201 11.3084 16.6001 10.4784C18.0801 10.2784 19.6501 10.5584 20.7801 11.3084C22.3601 12.3484 22.3601 14.0584 20.7901 15.1084Z" fill="#3444FB"/>
<path d="M6.44016 8.17845C6.51016 8.16845 6.58016 8.16845 6.65016 8.17845C8.20016 8.12845 9.43016 6.85845 9.43016 5.29845C9.43016 3.69845 8.14016 2.40845 6.54016 2.40845C4.95016 2.40845 3.66016 3.69845 3.66016 5.29845C3.66016 6.85845 4.89016 8.12845 6.44016 8.17845Z" fill="#3444FB"/>
<path d="M6.55012 13.2586C6.55012 14.2286 6.76012 15.1486 7.14012 15.9786C5.73012 16.1286 4.26012 15.8286 3.18012 15.1186C1.60012 14.0686 1.60012 12.3586 3.18012 11.3086C4.25012 10.5886 5.76012 10.2986 7.18012 10.4586C6.77012 11.2986 6.55012 12.2486 6.55012 13.2586Z" fill="#3444FB"/>
<path d="M12.1198 16.2784C12.0398 16.2684 11.9498 16.2684 11.8598 16.2784C10.0198 16.2184 8.5498 14.7084 8.5498 12.8484C8.5598 10.9484 10.0898 9.40845 11.9998 9.40845C13.8998 9.40845 15.4398 10.9484 15.4398 12.8484C15.4298 14.7084 13.9698 16.2184 12.1198 16.2784Z" fill="#3444FB"/>
<path d="M8.8698 18.3483C7.3598 19.3583 7.3598 21.0183 8.8698 22.0183C10.5898 23.1683 13.4098 23.1683 15.1298 22.0183C16.6398 21.0083 16.6398 19.3483 15.1298 18.3483C13.4198 17.1983 10.5998 17.1983 8.8698 18.3483Z" fill="#3444FB"/>
</svg>
