<svg width="12" height="13" viewBox="0 0 12 13" fill="none" xmlns="http://www.w3.org/2000/svg">
<path d="M7.49644 2.09729L10.6128 5.21361V11.1301H1.57995V2.09729H7.49644ZM7.49644 0.806885H1.57995C0.870232 0.806885 0.289551 1.38757 0.289551 2.09729V11.1301C0.289551 11.8398 0.870232 12.4205 1.57995 12.4205H10.6128C11.3225 12.4205 11.9032 11.8398 11.9032 11.1301V5.21361C11.9032 4.87165 11.7677 4.5426 11.5225 4.30387L8.40618 1.18755C8.16745 0.942377 7.8384 0.806885 7.49644 0.806885ZM2.87035 8.54929H9.32236V9.8397H2.87035V8.54929ZM2.87035 5.96849H9.32236V7.25889H2.87035V5.96849ZM2.87035 3.38769H7.38676V4.67809H2.87035V3.38769Z" fill="black"/>
</svg>
