<svg width="22" height="28" viewBox="0 0 22 28" fill="none" xmlns="http://www.w3.org/2000/svg">
<path d="M18.6667 9.33333H17.3333V6.66667C17.3333 2.98667 14.3467 0 10.6667 0C6.98667 0 4 2.98667 4 6.66667V9.33333H2.66667C1.2 9.33333 0 10.5333 0 12V25.3333C0 26.8 1.2 28 2.66667 28H18.6667C20.1333 28 21.3333 26.8 21.3333 25.3333V12C21.3333 10.5333 20.1333 9.33333 18.6667 9.33333ZM6.66667 6.66667C6.66667 4.45333 8.45333 2.66667 10.6667 2.66667C12.88 2.66667 14.6667 4.45333 14.6667 6.66667V9.33333H6.66667V6.66667ZM17.3333 25.3333H4C3.26667 25.3333 2.66667 24.7333 2.66667 24V13.3333C2.66667 12.6 3.26667 12 4 12H17.3333C18.0667 12 18.6667 12.6 18.6667 13.3333V24C18.6667 24.7333 18.0667 25.3333 17.3333 25.3333ZM10.6667 21.3333C12.1333 21.3333 13.3333 20.1333 13.3333 18.6667C13.3333 17.2 12.1333 16 10.6667 16C9.2 16 8 17.2 8 18.6667C8 20.1333 9.2 21.3333 10.6667 21.3333Z" fill="black"/>
</svg>
