<svg width="20" height="20" viewBox="0 0 20 20" fill="none" xmlns="http://www.w3.org/2000/svg">
<path d="M13.7259 8.41569V7.67187C13.7259 5.62133 12.0575 3.95288 10.0069 3.95288C7.95637 3.95288 6.28792 5.62133 6.28792 7.67187V8.41569C5.46634 8.41569 4.80029 9.08166 4.80029 9.90332V15.1099C4.80037 15.9314 5.46634 16.5974 6.28792 16.5974H13.7259C14.5475 16.5974 15.2135 15.9314 15.2135 15.1098V9.90324C15.2135 9.08166 14.5475 8.41569 13.7259 8.41569ZM7.77555 7.67187C7.77555 6.4414 8.77644 5.44051 10.0069 5.44051C11.2374 5.44051 12.2383 6.4414 12.2383 7.67187V8.41569H7.77555V7.67187ZM10.7507 12.8784C10.7507 13.2892 10.4176 13.6222 10.0068 13.6222C9.59605 13.6222 9.26302 13.2892 9.26302 12.8784V11.3908C9.26302 10.98 9.59605 10.647 10.0068 10.647C10.4176 10.647 10.7507 10.98 10.7507 11.3908V12.8784Z" fill="white"/>
</svg>
