<svg width="12" height="9" viewBox="0 0 12 9" fill="none" xmlns="http://www.w3.org/2000/svg">
<path d="M4.32209 5.82314C2.9633 5.82314 0.257324 6.50254 0.257324 7.85553V8.87172H8.38685V7.85553C8.38685 6.50254 5.68088 5.82314 4.32209 5.82314ZM1.61612 7.71036C2.10389 7.37356 3.28267 6.98451 4.32209 6.98451C5.36151 6.98451 6.54029 7.37356 7.02806 7.71036H1.61612ZM4.32209 4.80695C5.4428 4.80695 6.35447 3.89528 6.35447 2.77457C6.35447 1.65386 5.4428 0.742188 4.32209 0.742188C3.20138 0.742188 2.28971 1.65386 2.28971 2.77457C2.28971 3.89528 3.20138 4.80695 4.32209 4.80695ZM4.32209 1.90355C4.80405 1.90355 5.19311 2.29261 5.19311 2.77457C5.19311 3.25654 4.80405 3.64559 4.32209 3.64559C3.84012 3.64559 3.45107 3.25654 3.45107 2.77457C3.45107 2.29261 3.84012 1.90355 4.32209 1.90355ZM8.41008 5.85799C9.08367 6.34576 9.54822 6.99612 9.54822 7.85553V8.87172H11.8709V7.85553C11.8709 6.68255 9.83856 6.01477 8.41008 5.85799ZM7.80617 4.80695C8.92689 4.80695 9.83856 3.89528 9.83856 2.77457C9.83856 1.65386 8.92689 0.742188 7.80617 0.742188C7.49261 0.742188 7.20227 0.817676 6.93515 0.945426C7.30098 1.46223 7.51583 2.09517 7.51583 2.77457C7.51583 3.45397 7.30098 4.08691 6.93515 4.60371C7.20227 4.73146 7.49261 4.80695 7.80617 4.80695Z" fill="black"/>
</svg>
