<svg width="504" height="151" viewBox="0 0 504 151" fill="none" xmlns="http://www.w3.org/2000/svg">
<path d="M447.579 149.801V115.088H462.561V149.801H447.579Z" fill="url(#paint0_radial_672_2233)"/>
<path d="M370.031 149.801L395.2 75.3911H415.776L440.945 149.801H424.066L419.072 134.62H391.805L386.811 149.801H370.031ZM396.099 121.136H414.777L403.391 85.9783H407.586L396.099 121.136Z" fill="url(#paint1_radial_672_2233)"/>
<path d="M317.951 149.801V95.2671H331.934V108.351L330.935 106.454C332.133 101.859 334.098 98.7629 336.828 97.1648C339.624 95.5002 342.92 94.6679 346.716 94.6679H349.912V107.652H345.218C341.555 107.652 338.592 108.784 336.328 111.048C334.064 113.245 332.932 116.375 332.932 120.437V149.801H317.951Z" fill="url(#paint2_radial_672_2233)"/>
<path d="M279.96 151C274.566 151 269.639 149.768 265.177 147.304C260.783 144.841 257.254 141.478 254.59 137.217C251.993 132.888 250.695 127.994 250.695 122.534C250.695 117.008 251.993 112.114 254.59 107.852C257.254 103.59 260.783 100.228 265.177 97.7641C269.639 95.3004 274.566 94.0686 279.96 94.0686C285.353 94.0686 290.247 95.3004 294.642 97.7641C299.037 100.228 302.532 103.59 305.129 107.852C307.793 112.114 309.124 117.008 309.124 122.534C309.124 127.994 307.793 132.888 305.129 137.217C302.532 141.478 299.037 144.841 294.642 147.304C290.247 149.768 285.353 151 279.96 151ZM279.96 137.516C282.69 137.516 285.053 136.884 287.051 135.619C289.115 134.353 290.713 132.589 291.845 130.325C293.044 128.061 293.643 125.464 293.643 122.534C293.643 119.604 293.044 117.041 291.845 114.844C290.713 112.58 289.115 110.815 287.051 109.55C285.053 108.218 282.69 107.552 279.96 107.552C277.23 107.552 274.832 108.218 272.768 109.55C270.704 110.815 269.073 112.58 267.874 114.844C266.742 117.041 266.176 119.604 266.176 122.534C266.176 125.464 266.742 128.061 267.874 130.325C269.073 132.589 270.704 134.353 272.768 135.619C274.832 136.884 277.23 137.516 279.96 137.516Z" fill="url(#paint3_radial_672_2233)"/>
<path d="M237.121 150.401C230.529 150.401 225.402 148.636 221.74 145.107C218.144 141.511 216.346 136.517 216.346 130.125V108.252H207.157V95.2672H207.657C210.453 95.2672 212.584 94.568 214.049 93.1697C215.581 91.7714 216.346 89.6739 216.346 86.8773V82.8821H231.328V95.2672H244.113V108.252H231.328V129.126C231.328 130.991 231.661 132.556 232.327 133.821C232.993 135.019 234.025 135.918 235.423 136.517C236.822 137.117 238.553 137.416 240.617 137.416C241.083 137.416 241.616 137.383 242.215 137.316C242.814 137.25 243.447 137.183 244.113 137.117V149.801C243.114 149.935 241.982 150.068 240.717 150.201C239.452 150.334 238.253 150.401 237.121 150.401Z" fill="url(#paint4_radial_672_2233)"/>
<path d="M151.062 149.801V95.2672H165.045V106.054L164.246 103.657C165.511 100.394 167.542 97.9972 170.339 96.4657C173.202 94.8676 176.531 94.0686 180.326 94.0686C184.455 94.0686 188.051 94.9342 191.113 96.6655C194.243 98.3967 196.673 100.827 198.405 103.957C200.136 107.02 201.002 110.615 201.002 114.744V149.801H186.02V117.94C186.02 115.809 185.587 113.978 184.721 112.446C183.922 110.915 182.757 109.716 181.225 108.851C179.76 107.985 178.029 107.552 176.032 107.552C174.101 107.552 172.369 107.985 170.838 108.851C169.306 109.716 168.108 110.915 167.242 112.446C166.443 113.978 166.044 115.809 166.044 117.94V149.801H151.062Z" fill="url(#paint5_radial_672_2233)"/>
<path d="M116.271 151C110.478 151 105.451 149.735 101.189 147.205C96.9275 144.608 93.6315 141.145 91.3009 136.817C88.9704 132.489 87.8052 127.695 87.8052 122.434C87.8052 116.974 89.0037 112.114 91.4008 107.852C93.8645 103.59 97.1606 100.228 101.289 97.7641C105.417 95.3004 110.078 94.0686 115.272 94.0686C119.6 94.0686 123.429 94.7677 126.758 96.1661C130.088 97.4978 132.884 99.3955 135.148 101.859C137.479 104.323 139.243 107.186 140.442 110.449C141.64 113.645 142.24 117.141 142.24 120.936C142.24 122.002 142.173 123.067 142.04 124.132C141.973 125.131 141.807 125.997 141.54 126.729H100.69V115.742H133.051L125.959 120.936C126.625 118.073 126.592 115.543 125.859 113.345C125.127 111.081 123.828 109.317 121.964 108.052C120.166 106.72 117.936 106.054 115.272 106.054C112.675 106.054 110.445 106.687 108.58 107.952C106.716 109.217 105.317 111.081 104.385 113.545C103.453 116.009 103.087 119.005 103.287 122.534C103.02 125.597 103.386 128.294 104.385 130.625C105.384 132.955 106.915 134.786 108.98 136.118C111.044 137.383 113.541 138.016 116.471 138.016C119.134 138.016 121.398 137.483 123.262 136.418C125.193 135.352 126.692 133.887 127.757 132.023L139.743 137.716C138.677 140.379 136.979 142.71 134.649 144.708C132.385 146.705 129.688 148.27 126.558 149.402C123.429 150.467 120 151 116.271 151Z" fill="url(#paint6_radial_672_2233)"/>
<path d="M0 149.801V75.3911H14.9819L42.8484 112.347H35.8568L62.9242 75.3911H77.9061V149.801H62.4248V92.4705L68.6173 93.8688L39.9519 130.824H37.9543L10.2876 93.8688L15.4813 92.4705V149.801H0Z" fill="url(#paint7_radial_672_2233)"/>
<path d="M455.291 0L460.006 20.0714C462.708 31.5755 471.69 40.5579 483.194 43.2601L503.266 47.9747L483.194 52.6893C471.69 55.3915 462.708 64.3739 460.006 75.8779L455.291 95.9494L450.577 75.8779C447.874 64.3739 438.892 55.3915 427.388 52.6893L407.316 47.9747L427.388 43.2601C438.892 40.5579 447.874 31.5755 450.577 20.0714L455.291 0Z" fill="url(#paint8_radial_672_2233)"/>
<defs>
<radialGradient id="paint0_radial_672_2233" cx="0" cy="0" r="1" gradientUnits="userSpaceOnUse" gradientTransform="translate(353.941 21.9459) rotate(161.148) scale(354.59 348.025)">
<stop stop-color="#3444FB"/>
<stop offset="1" stop-color="#030A61"/>
</radialGradient>
<radialGradient id="paint1_radial_672_2233" cx="0" cy="0" r="1" gradientUnits="userSpaceOnUse" gradientTransform="translate(353.941 21.9459) rotate(161.148) scale(354.59 348.025)">
<stop stop-color="#3444FB"/>
<stop offset="1" stop-color="#030A61"/>
</radialGradient>
<radialGradient id="paint2_radial_672_2233" cx="0" cy="0" r="1" gradientUnits="userSpaceOnUse" gradientTransform="translate(353.941 21.9459) rotate(161.148) scale(354.59 348.025)">
<stop stop-color="#3444FB"/>
<stop offset="1" stop-color="#030A61"/>
</radialGradient>
<radialGradient id="paint3_radial_672_2233" cx="0" cy="0" r="1" gradientUnits="userSpaceOnUse" gradientTransform="translate(353.941 21.9459) rotate(161.148) scale(354.59 348.025)">
<stop stop-color="#3444FB"/>
<stop offset="1" stop-color="#030A61"/>
</radialGradient>
<radialGradient id="paint4_radial_672_2233" cx="0" cy="0" r="1" gradientUnits="userSpaceOnUse" gradientTransform="translate(353.941 21.9459) rotate(161.148) scale(354.59 348.025)">
<stop stop-color="#3444FB"/>
<stop offset="1" stop-color="#030A61"/>
</radialGradient>
<radialGradient id="paint5_radial_672_2233" cx="0" cy="0" r="1" gradientUnits="userSpaceOnUse" gradientTransform="translate(353.941 21.9459) rotate(161.148) scale(354.59 348.025)">
<stop stop-color="#3444FB"/>
<stop offset="1" stop-color="#030A61"/>
</radialGradient>
<radialGradient id="paint6_radial_672_2233" cx="0" cy="0" r="1" gradientUnits="userSpaceOnUse" gradientTransform="translate(353.941 21.9459) rotate(161.148) scale(354.59 348.025)">
<stop stop-color="#3444FB"/>
<stop offset="1" stop-color="#030A61"/>
</radialGradient>
<radialGradient id="paint7_radial_672_2233" cx="0" cy="0" r="1" gradientUnits="userSpaceOnUse" gradientTransform="translate(353.941 21.9459) rotate(161.148) scale(354.59 348.025)">
<stop stop-color="#3444FB"/>
<stop offset="1" stop-color="#030A61"/>
</radialGradient>
<radialGradient id="paint8_radial_672_2233" cx="0" cy="0" r="1" gradientUnits="userSpaceOnUse" gradientTransform="translate(353.941 21.9459) rotate(161.148) scale(354.59 348.025)">
<stop stop-color="#3444FB"/>
<stop offset="1" stop-color="#030A61"/>
</radialGradient>
</defs>
</svg>
