<svg width="24" height="25" viewBox="0 0 24 25" fill="none" xmlns="http://www.w3.org/2000/svg">
<path d="M20.5 16.4084V18.9084C20.5 20.8384 18.93 22.4084 17 22.4084H7C5.07 22.4084 3.5 20.8384 3.5 18.9084V18.2584C3.5 16.6884 4.78 15.4084 6.35 15.4084H19.5C20.05 15.4084 20.5 15.8584 20.5 16.4084Z" fill="#3444FB"/>
<path d="M15.5 2.40845H8.5C4.5 2.40845 3.5 3.40845 3.5 7.40845V14.9884C4.26 14.3184 5.26 13.9084 6.35 13.9084H19.5C20.05 13.9084 20.5 13.4584 20.5 12.9084V7.40845C20.5 3.40845 19.5 2.40845 15.5 2.40845ZM13 11.1584H8C7.59 11.1584 7.25 10.8184 7.25 10.4084C7.25 9.99845 7.59 9.65845 8 9.65845H13C13.41 9.65845 13.75 9.99845 13.75 10.4084C13.75 10.8184 13.41 11.1584 13 11.1584ZM16 7.65845H8C7.59 7.65845 7.25 7.31845 7.25 6.90845C7.25 6.49845 7.59 6.15845 8 6.15845H16C16.41 6.15845 16.75 6.49845 16.75 6.90845C16.75 7.31845 16.41 7.65845 16 7.65845Z" fill="#3444FB"/>
</svg>
