<svg width="62" height="41" viewBox="0 0 62 41" fill="none" xmlns="http://www.w3.org/2000/svg">
<path fill-rule="evenodd" clip-rule="evenodd" d="M50.9382 15.5312C50.9382 20.615 48.9616 24.1548 46.2601 26.467C48.9639 28.7791 50.9427 32.32 50.9427 37.4067C50.9427 39.3901 49.333 40.9999 47.3495 40.9999C45.366 40.9999 43.7562 39.3901 43.7562 37.4067C43.7562 34.3308 42.7022 32.3378 40.4408 31.1352C38.5905 30.153 36.6009 30.0681 36.3993 30.0624H25.4739C23.4904 30.0624 21.8806 28.4526 21.8806 26.4691C21.8806 24.4856 23.4904 22.8758 25.4739 22.8758H36.3592C36.3767 22.8756 36.3941 22.8755 36.4116 22.8755H36.4249C36.6039 22.8698 38.5901 22.7853 40.4411 21.8026C42.7024 20.6001 43.7564 18.6071 43.7564 15.5312C43.7564 12.4554 42.7024 10.4623 40.4411 9.25974C38.5007 8.22968 36.407 8.18654 36.383 8.18654H25.4691C23.4856 8.18654 21.8758 6.57682 21.8758 4.59327C21.8758 2.6098 23.4856 1 25.4691 1H36.407C42.2473 1 50.9382 4.87117 50.9382 15.5312ZM25.4737 41H36.4116C38.3951 41 40.0049 39.3902 40.0049 37.4067C40.0049 35.4233 38.3951 33.8135 36.4116 33.8135H25.4737C25.4546 33.8135 23.5046 33.7703 21.6122 32.8265C19.2358 31.6384 18.1291 29.5447 18.1291 26.4688C18.1291 23.393 19.1831 21.3999 21.4445 20.1974C23.3848 19.1673 25.4737 19.1242 25.4737 19.1242H36.4116C38.3951 19.1242 40.0049 17.5144 40.0049 15.5309C40.0049 13.5474 38.3951 11.9376 36.4116 11.9376H25.4737C19.6334 11.9376 10.9425 15.8088 10.9425 26.4688C10.9425 37.1288 19.6334 41 25.4737 41ZM2.86503 39.0974C3.51182 40.3095 4.75749 40.9994 6.04148 40.9994C6.61162 40.9994 7.19133 40.8653 7.72796 40.5778C9.47667 39.6435 10.1426 37.4685 9.20833 35.7149C7.86687 33.1949 7.18654 30.0855 7.18654 26.4778C7.18654 26.3629 7.37339 14.7686 16.1889 10.1835C17.9472 9.26846 18.6323 7.09812 17.7172 5.33984C16.8021 3.58149 14.6366 2.89642 12.8735 3.81151C0.148522 10.4279 0 25.8166 0 26.4683C0 31.2784 0.962996 35.5281 2.86503 39.0974Z" fill="url(#paint0_linear_367_1368)"/>
<path d="M56.3828 6.35417V0.301041H57.1141L59.3809 3.52667H59.0072L61.2578 0.301041H61.9891V6.35417H61.1847V1.30854L61.4691 1.39792L59.2184 4.56667H59.1534L56.9272 1.39792L57.1791 1.30854V6.35417H56.3828Z" fill="black"/>
<path d="M51.7311 6.35417V1.03229H50.0898V0.301041H54.1523V1.03229H52.5355V6.35417H51.7311Z" fill="black"/>
<defs>
<linearGradient id="paint0_linear_367_1368" x1="12.7454" y1="2.80302" x2="50.9423" y2="41.0005" gradientUnits="userSpaceOnUse">
<stop stop-color="#01F8D6"/>
<stop offset="0.209877" stop-color="#2285F0"/>
<stop offset="0.482041" stop-color="#3444FB"/>
<stop offset="0.749779" stop-color="#9E1FE5"/>
<stop offset="1" stop-color="#F900E2"/>
</linearGradient>
</defs>
</svg>
