<svg width="154" height="43" viewBox="0 0 154 43" fill="none" xmlns="http://www.w3.org/2000/svg">
<rect x="53.353" y="0.000244141" width="1.71828" height="42.6907" fill="black"/>
<path d="M73.337 29.5756C72.3249 29.5756 71.4055 29.3831 70.5788 28.9983C69.752 28.6134 69.0536 28.1002 68.4834 27.4588C67.9132 26.8031 67.507 26.0833 67.2646 25.2993L68.8041 24.722C69.1747 25.8053 69.752 26.6321 70.536 27.2022C71.32 27.7581 72.2536 28.0361 73.337 28.0361C74.0212 28.0361 74.6198 27.9292 75.133 27.7154C75.6604 27.4873 76.0666 27.1737 76.3517 26.7746C76.6368 26.3755 76.7793 25.9122 76.7793 25.3848C76.7793 24.6008 76.5655 23.995 76.1379 23.5674C75.7103 23.1398 75.0974 22.8119 74.2991 22.5839L71.434 21.7286C70.3079 21.4008 69.4384 20.852 68.8255 20.0822C68.2268 19.3125 67.9275 18.4359 67.9275 17.4523C67.9275 16.6113 68.1342 15.8701 68.5475 15.2287C68.9609 14.573 69.5239 14.0598 70.2367 13.6892C70.9636 13.3186 71.7832 13.1333 72.6955 13.1333C73.6505 13.1333 74.5058 13.3115 75.2613 13.6678C76.031 14.0099 76.6796 14.4661 77.207 15.0362C77.7344 15.6064 78.1121 16.2407 78.3402 16.9392L76.8435 17.5379C76.5014 16.5971 75.9669 15.8844 75.2399 15.3997C74.5272 14.9151 73.6862 14.6728 72.7169 14.6728C72.104 14.6728 71.5623 14.7797 71.0919 14.9935C70.6358 15.2073 70.2794 15.5138 70.0228 15.9129C69.7663 16.312 69.638 16.7824 69.638 17.324C69.638 17.9797 69.8447 18.5713 70.258 19.0987C70.6714 19.6119 71.3057 19.9967 72.161 20.2533L74.684 21.0016C75.9383 21.3722 76.8863 21.9068 77.5277 22.6052C78.1691 23.3037 78.4899 24.1803 78.4899 25.2351C78.4899 26.0904 78.2689 26.8459 77.827 27.5016C77.3994 28.143 76.7936 28.649 76.0096 29.0196C75.2399 29.3903 74.349 29.5756 73.337 29.5756Z" fill="black"/>
<path d="M95.1291 29.319V21.921L89.5485 13.3899H91.4515L96.3264 20.8092H95.6422L100.496 13.3899H102.399L96.8396 21.921V29.319H95.1291Z" fill="black"/>
<path d="M114.566 29.319V13.3899H116.062L125.406 26.796H124.829V13.3899H126.539V29.319H125.043L115.699 15.8274H116.276V29.319H114.566Z" fill="black"/>
<path d="M147.628 29.5756C146.502 29.5756 145.469 29.376 144.528 28.9769C143.587 28.5635 142.768 27.9933 142.069 27.2664C141.385 26.5252 140.85 25.6556 140.466 24.6578C140.081 23.6601 139.888 22.5625 139.888 21.3651C139.888 20.1678 140.081 19.0702 140.466 18.0724C140.85 17.0746 141.385 16.2051 142.069 15.4639C142.768 14.7226 143.587 14.1525 144.528 13.7534C145.469 13.34 146.502 13.1333 147.628 13.1333C148.712 13.1333 149.681 13.3257 150.536 13.7106C151.406 14.0955 152.133 14.5944 152.717 15.2073C153.316 15.806 153.743 16.4403 154 17.1102L152.396 17.8158C151.997 16.8893 151.384 16.1481 150.558 15.5922C149.745 15.022 148.769 14.7369 147.628 14.7369C146.459 14.7369 145.419 15.0149 144.507 15.5708C143.594 16.1267 142.882 16.9035 142.368 17.9013C141.855 18.8849 141.599 20.0395 141.599 21.3651C141.599 22.6765 141.855 23.8311 142.368 24.8289C142.882 25.8267 143.594 26.6036 144.507 27.1595C145.419 27.7011 146.459 27.972 147.628 27.972C148.769 27.972 149.745 27.694 150.558 27.1381C151.384 26.5822 151.997 25.841 152.396 24.9144L154 25.62C153.743 26.2757 153.316 26.91 152.717 27.523C152.133 28.1216 151.406 28.6134 150.536 28.9983C149.681 29.3831 148.712 29.5756 147.628 29.5756Z" fill="black"/>
<path fill-rule="evenodd" clip-rule="evenodd" d="M36.2959 17.8522C36.2959 21.4747 34.8875 23.997 32.9626 25.6445C34.8892 27.292 36.2992 29.8151 36.2992 33.4396C36.2992 34.8529 35.1521 35.9999 33.7388 35.9999C32.3255 35.9999 31.1784 34.8529 31.1784 33.4396C31.1784 31.2479 30.4274 29.8277 28.8161 28.9709C27.4977 28.271 26.0799 28.2105 25.9363 28.2064H18.1514C16.7381 28.2064 15.591 27.0594 15.591 25.646C15.591 24.2327 16.7381 23.0857 18.1514 23.0857H25.9077C25.9202 23.0855 25.9326 23.0854 25.945 23.0854H25.9545C26.0821 23.0813 27.4973 23.0211 28.8162 22.3209C30.4276 21.4641 31.1786 20.0439 31.1786 17.8522C31.1786 15.6606 30.4276 14.2404 28.8162 13.3835C27.4336 12.6495 25.9418 12.6188 25.9247 12.6188H18.148C16.7347 12.6188 15.5876 11.4718 15.5876 10.0584C15.5876 8.64511 16.7347 7.49805 18.148 7.49805H25.9418C30.1033 7.49805 36.2959 10.2564 36.2959 17.8522ZM18.1513 36H25.9451C27.3584 36 28.5055 34.8529 28.5055 33.4396C28.5055 32.0263 27.3584 30.8792 25.9451 30.8792H18.1513C18.1376 30.8792 16.7482 30.8485 15.3997 30.176C13.7065 29.3294 12.9178 27.8375 12.9178 25.6458C12.9178 23.4542 13.6689 22.034 15.2803 21.1771C16.6628 20.4431 18.1513 20.4124 18.1513 20.4124H25.9451C27.3584 20.4124 28.5055 19.2654 28.5055 17.852C28.5055 16.4387 27.3584 15.2916 25.9451 15.2916H18.1513C13.9898 15.2916 7.79708 18.05 7.79708 25.6458C7.79708 33.2416 13.9898 36 18.1513 36ZM2.04148 34.6443C2.50234 35.508 3.38994 35.9996 4.30485 35.9996C4.7111 35.9996 5.12417 35.904 5.50655 35.6992C6.75259 35.0335 7.22712 33.4836 6.56139 32.2341C5.60553 30.4385 5.12076 28.2229 5.12076 25.6522C5.12076 25.5703 5.2539 17.3088 11.5354 14.0418C12.7882 13.3897 13.2764 11.8433 12.6244 10.5904C11.9723 9.33749 10.4293 8.84934 9.173 9.50138C0.105829 14.2159 0 25.1811 0 25.6454C0 29.0729 0.686182 32.101 2.04148 34.6443Z" fill="url(#paint0_linear_669_4450)"/>
<path d="M40.1753 11.3131V7H40.6963L42.3116 9.29842H42.0453L43.649 7H44.17V11.3131H43.5969V7.71789L43.7995 7.78158L42.1958 10.0395H42.1495L40.5632 7.78158L40.7427 7.71789V11.3131H40.1753Z" fill="black"/>
<path d="M36.8609 11.3131V7.52105H35.6914V7H38.5861V7.52105H37.434V11.3131H36.8609Z" fill="black"/>
<defs>
<linearGradient id="paint0_linear_669_4450" x1="9.08171" y1="8.78279" x2="36.2989" y2="36.0003" gradientUnits="userSpaceOnUse">
<stop stop-color="#01F8D6"/>
<stop offset="0.209877" stop-color="#2285F0"/>
<stop offset="0.482041" stop-color="#3444FB"/>
<stop offset="0.749779" stop-color="#9E1FE5"/>
<stop offset="1" stop-color="#F900E2"/>
</linearGradient>
</defs>
</svg>
