<svg width="13" height="13" viewBox="0 0 13 13" fill="none" xmlns="http://www.w3.org/2000/svg">
<path d="M6.60764 0.806641C3.40228 0.806641 0.806641 3.40809 0.806641 6.61345C0.806641 9.81881 3.40228 12.4203 6.60764 12.4203C9.81881 12.4203 12.4203 9.81881 12.4203 6.61345C12.4203 3.40809 9.81881 0.806641 6.60764 0.806641ZM6.61345 11.2589C4.04684 11.2589 1.968 9.18006 1.968 6.61345C1.968 4.04684 4.04684 1.968 6.61345 1.968C9.18006 1.968 11.2589 4.04684 11.2589 6.61345C11.2589 9.18006 9.18006 11.2589 6.61345 11.2589ZM6.90379 3.71004H6.03277V7.19413L9.08134 9.02327L9.51685 8.30904L6.90379 6.75862V3.71004Z" fill="black"/>
</svg>
