<svg width="25" height="25" viewBox="0 0 25 25" fill="none" xmlns="http://www.w3.org/2000/svg">
<path d="M10.1138 15.7607V8.59267C10.1139 8.50299 10.1382 8.415 10.184 8.33792C10.2299 8.26084 10.2956 8.1975 10.3743 8.15456C10.4531 8.11161 10.5419 8.09063 10.6315 8.09382C10.7212 8.09701 10.8083 8.12424 10.8838 8.17267L16.4598 11.7557C16.5304 11.8009 16.5885 11.8632 16.6287 11.9367C16.6689 12.0103 16.69 12.0928 16.69 12.1767C16.69 12.2605 16.6689 12.343 16.6287 12.4166C16.5885 12.4902 16.5304 12.5524 16.4598 12.5977L10.8838 16.1817C10.8083 16.2301 10.7212 16.2573 10.6315 16.2605C10.5419 16.2637 10.4531 16.2427 10.3743 16.1998C10.2956 16.1568 10.2299 16.0935 10.184 16.0164C10.1382 15.9394 10.1139 15.8514 10.1138 15.7617V15.7607Z" fill="#3444FB"/>
<path d="M1.61768 12.1775C1.61768 6.10249 6.54268 1.17749 12.6177 1.17749C18.6927 1.17749 23.6177 6.10249 23.6177 12.1775C23.6177 18.2525 18.6927 23.1775 12.6177 23.1775C6.54268 23.1775 1.61768 18.2525 1.61768 12.1775ZM12.6177 2.67749C10.0981 2.67749 7.68176 3.67838 5.90016 5.45998C4.11857 7.24157 3.11768 9.65793 3.11768 12.1775C3.11768 14.697 4.11857 17.1134 5.90016 18.895C7.68176 20.6766 10.0981 21.6775 12.6177 21.6775C15.1372 21.6775 17.5536 20.6766 19.3352 18.895C21.1168 17.1134 22.1177 14.697 22.1177 12.1775C22.1177 9.65793 21.1168 7.24157 19.3352 5.45998C17.5536 3.67838 15.1372 2.67749 12.6177 2.67749Z" fill="#3444FB"/>
</svg>
